<?xml version="1.0" encoding="UTF-8" standalone="no"?><svg xmlns="http://www.w3.org/2000/svg" xmlns:xlink="http://www.w3.org/1999/xlink" contentScriptType="application/ecmascript" contentStyleType="text/css" height="339px" preserveAspectRatio="none" style="width:766px;height:339px;" version="1.1" viewBox="0 0 766 339" width="766px" zoomAndPan="magnify"><defs><filter height="300%" id="f7qpzi7dshs8n" width="300%" x="-1" y="-1"><feGaussianBlur result="blurOut" stdDeviation="2.0"/><feColorMatrix in="blurOut" result="blurOut2" type="matrix" values="0 0 0 0 0 0 0 0 0 0 0 0 0 0 0 0 0 0 .4 0"/><feOffset dx="4.0" dy="4.0" in="blurOut2" result="blurOut3"/><feBlend in="SourceGraphic" in2="blurOut3" mode="normal"/></filter></defs><g><rect fill="#FFFFFF" filter="url(#f7qpzi7dshs8n)" height="132.6211" style="stroke:#000000;stroke-width:2.0;" width="742" x="10" y="105.4883"/><rect fill="#FFFFFF" filter="url(#f7qpzi7dshs8n)" height="59.3105" style="stroke:#000000;stroke-width:2.0;" width="596" x="146" y="171.7988"/><line style="stroke:#A80036;stroke-width:1.0;stroke-dasharray:5.0,5.0;" x1="38" x2="38" y1="88.4883" y2="255.1094"/><line style="stroke:#A80036;stroke-width:1.0;stroke-dasharray:5.0,5.0;" x1="106" x2="106" y1="88.4883" y2="255.1094"/><line style="stroke:#A80036;stroke-width:1.0;stroke-dasharray:5.0,5.0;" x1="209" x2="209" y1="88.4883" y2="255.1094"/><line style="stroke:#A80036;stroke-width:1.0;stroke-dasharray:5.0,5.0;" x1="344" x2="344" y1="88.4883" y2="255.1094"/><line style="stroke:#A80036;stroke-width:1.0;stroke-dasharray:5.0,5.0;" x1="471" x2="471" y1="88.4883" y2="255.1094"/><line style="stroke:#A80036;stroke-width:1.0;stroke-dasharray:5.0,5.0;" x1="576" x2="576" y1="88.4883" y2="255.1094"/><line style="stroke:#A80036;stroke-width:1.0;stroke-dasharray:5.0,5.0;" x1="684" x2="684" y1="88.4883" y2="255.1094"/><text fill="#000000" font-family="sans-serif" font-size="14" lengthAdjust="spacingAndGlyphs" textLength="31" x="20" y="85.5352">User</text><ellipse cx="38.5" cy="15" fill="#FEFECE" filter="url(#f7qpzi7dshs8n)" rx="8" ry="8" style="stroke:#A80036;stroke-width:2.0;"/><path d="M38.5,23 L38.5,50 M25.5,31 L51.5,31 M38.5,50 L25.5,65 M38.5,50 L51.5,65 " fill="none" filter="url(#f7qpzi7dshs8n)" style="stroke:#A80036;stroke-width:2.0;"/><text fill="#000000" font-family="sans-serif" font-size="14" lengthAdjust="spacingAndGlyphs" textLength="31" x="20" y="267.6445">User</text><ellipse cx="38.5" cy="280.5977" fill="#FEFECE" filter="url(#f7qpzi7dshs8n)" rx="8" ry="8" style="stroke:#A80036;stroke-width:2.0;"/><path d="M38.5,288.5977 L38.5,315.5977 M25.5,296.5977 L51.5,296.5977 M38.5,315.5977 L25.5,330.5977 M38.5,315.5977 L51.5,330.5977 " fill="none" filter="url(#f7qpzi7dshs8n)" style="stroke:#A80036;stroke-width:2.0;"/><rect fill="#FEFECE" filter="url(#f7qpzi7dshs8n)" height="30.4883" style="stroke:#A80036;stroke-width:1.5;" width="75" x="67" y="53"/><text fill="#000000" font-family="sans-serif" font-size="14" lengthAdjust="spacingAndGlyphs" textLength="61" x="74" y="73.5352">Activities</text><rect fill="#FEFECE" filter="url(#f7qpzi7dshs8n)" height="30.4883" style="stroke:#A80036;stroke-width:1.5;" width="75" x="67" y="254.1094"/><text fill="#000000" font-family="sans-serif" font-size="14" lengthAdjust="spacingAndGlyphs" textLength="61" x="74" y="274.6445">Activities</text><rect fill="#FEFECE" filter="url(#f7qpzi7dshs8n)" height="30.4883" style="stroke:#A80036;stroke-width:1.5;" width="102" x="156" y="53"/><text fill="#000000" font-family="sans-serif" font-size="14" lengthAdjust="spacingAndGlyphs" textLength="88" x="163" y="73.5352">DigitalProfile</text><rect fill="#FEFECE" filter="url(#f7qpzi7dshs8n)" height="30.4883" style="stroke:#A80036;stroke-width:1.5;" width="102" x="156" y="254.1094"/><text fill="#000000" font-family="sans-serif" font-size="14" lengthAdjust="spacingAndGlyphs" textLength="88" x="163" y="274.6445">DigitalProfile</text><rect fill="#FEFECE" filter="url(#f7qpzi7dshs8n)" height="30.4883" style="stroke:#A80036;stroke-width:1.5;" width="141" x="272" y="53"/><text fill="#000000" font-family="sans-serif" font-size="14" lengthAdjust="spacingAndGlyphs" textLength="127" x="279" y="73.5352">CollectActivityData</text><rect fill="#FEFECE" filter="url(#f7qpzi7dshs8n)" height="30.4883" style="stroke:#A80036;stroke-width:1.5;" width="141" x="272" y="254.1094"/><text fill="#000000" font-family="sans-serif" font-size="14" lengthAdjust="spacingAndGlyphs" textLength="127" x="279" y="274.6445">CollectActivityData</text><rect fill="#FEFECE" filter="url(#f7qpzi7dshs8n)" height="30.4883" style="stroke:#A80036;stroke-width:1.5;" width="84" x="427" y="53"/><text fill="#000000" font-family="sans-serif" font-size="14" lengthAdjust="spacingAndGlyphs" textLength="70" x="434" y="73.5352">ShareData</text><rect fill="#FEFECE" filter="url(#f7qpzi7dshs8n)" height="30.4883" style="stroke:#A80036;stroke-width:1.5;" width="84" x="427" y="254.1094"/><text fill="#000000" font-family="sans-serif" font-size="14" lengthAdjust="spacingAndGlyphs" textLength="70" x="434" y="274.6445">ShareData</text><rect fill="#FEFECE" filter="url(#f7qpzi7dshs8n)" height="30.4883" style="stroke:#A80036;stroke-width:1.5;" width="98" x="525" y="53"/><text fill="#000000" font-family="sans-serif" font-size="14" lengthAdjust="spacingAndGlyphs" textLength="84" x="532" y="73.5352">AnalyseData</text><rect fill="#FEFECE" filter="url(#f7qpzi7dshs8n)" height="30.4883" style="stroke:#A80036;stroke-width:1.5;" width="98" x="525" y="254.1094"/><text fill="#000000" font-family="sans-serif" font-size="14" lengthAdjust="spacingAndGlyphs" textLength="84" x="532" y="274.6445">AnalyseData</text><rect fill="#FEFECE" filter="url(#f7qpzi7dshs8n)" height="30.4883" style="stroke:#A80036;stroke-width:1.5;" width="91" x="637" y="53"/><text fill="#000000" font-family="sans-serif" font-size="14" lengthAdjust="spacingAndGlyphs" textLength="77" x="644" y="73.5352">ImportData</text><rect fill="#FEFECE" filter="url(#f7qpzi7dshs8n)" height="30.4883" style="stroke:#A80036;stroke-width:1.5;" width="91" x="637" y="254.1094"/><text fill="#000000" font-family="sans-serif" font-size="14" lengthAdjust="spacingAndGlyphs" textLength="77" x="644" y="274.6445">ImportData</text><path d="M10,105.4883 L104,105.4883 L104,112.4883 L94,122.4883 L10,122.4883 L10,105.4883 " fill="#EEEEEE" style="stroke:#000000;stroke-width:1.0;"/><rect fill="none" height="132.6211" style="stroke:#000000;stroke-width:2.0;" width="742" x="10" y="105.4883"/><text fill="#000000" font-family="sans-serif" font-size="13" font-weight="bold" lengthAdjust="spacingAndGlyphs" textLength="49" x="25" y="119.0566">Wellbie</text><polygon fill="#A80036" points="94.5,124.7988,104.5,128.7988,94.5,132.7988,98.5,128.7988" style="stroke:#A80036;stroke-width:1.0;"/><line style="stroke:#A80036;stroke-width:1.0;" x1="38.5" x2="100.5" y1="128.7988" y2="128.7988"/><polygon fill="#A80036" points="197,138.7988,207,142.7988,197,146.7988,201,142.7988" style="stroke:#A80036;stroke-width:1.0;"/><line style="stroke:#A80036;stroke-width:1.0;" x1="106.5" x2="203" y1="142.7988" y2="142.7988"/><polygon fill="#A80036" points="332.5,152.7988,342.5,156.7988,332.5,160.7988,336.5,156.7988" style="stroke:#A80036;stroke-width:1.0;"/><line style="stroke:#A80036;stroke-width:1.0;" x1="106.5" x2="338.5" y1="156.7988" y2="156.7988"/><path d="M146,171.7988 L278,171.7988 L278,178.7988 L268,188.7988 L146,188.7988 L146,171.7988 " fill="#EEEEEE" style="stroke:#000000;stroke-width:1.0;"/><rect fill="none" height="59.3105" style="stroke:#000000;stroke-width:2.0;" width="596" x="146" y="171.7988"/><text fill="#000000" font-family="sans-serif" font-size="13" font-weight="bold" lengthAdjust="spacingAndGlyphs" textLength="87" x="161" y="185.3672">DigitalProfile</text><polygon fill="#A80036" points="459,191.1094,469,195.1094,459,199.1094,463,195.1094" style="stroke:#A80036;stroke-width:1.0;"/><line style="stroke:#A80036;stroke-width:1.0;" x1="209" x2="465" y1="195.1094" y2="195.1094"/><polygon fill="#A80036" points="564,205.1094,574,209.1094,564,213.1094,568,209.1094" style="stroke:#A80036;stroke-width:1.0;"/><line style="stroke:#A80036;stroke-width:1.0;" x1="209" x2="570" y1="209.1094" y2="209.1094"/><polygon fill="#A80036" points="672.5,219.1094,682.5,223.1094,672.5,227.1094,676.5,223.1094" style="stroke:#A80036;stroke-width:1.0;"/><line style="stroke:#A80036;stroke-width:1.0;" x1="209" x2="678.5" y1="223.1094" y2="223.1094"/><!--MD5=[e899edb4f3e70666cfdd35b483321258]
@startuml
actor User

group Wellbie
  User -> Activities
  Activities -> DigitalProfile
  Activities -> CollectActivityData

  group DigitalProfile
        DigitalProfile -> ShareData
        DigitalProfile -> AnalyseData
        DigitalProfile -> ImportData

  end
end
@enduml

PlantUML version 1.2020.22(Sun Dec 06 14:36:27 YEKT 2020)
(GPL source distribution)
Java Runtime: Java(TM) SE Runtime Environment
JVM: Java HotSpot(TM) 64-Bit Server VM
Default Encoding: UTF-8
Language: en
Country: RU
--></g></svg>